# xmcd
#
# Track frame offsets: 
#        150
#        18666
#        34376
#        51103
#        67878
#        86668
#        104173
#        122930
#        141745
#        160367
#        174957
#        194851
#        208407
#        227496
#        239623
#        253637
#        266549
#        280481
#        294982
#        308212
#        323367
#        336627
#        348178
#        361277
#        374706
#
# Disc length: 5251 seconds
#
# Revision: 0
# Processed by: cddbd v1.5.2PL0 Copyright (c) Steve Scherf et al.
# Submitted via: ExactAudioCopy v0.99pb4
#
DISCID=a4148119
DTITLE=Various Artist - Country Music Of America 1
DYEAR=1900
DGENRE=
TTITLE0=Shania Twain - Any Man Of Mine
TTITLE1=Dan Williams - Games People Play
TTITLE2=Leann Rimes - Love Must Be Telling Me Something
TTITLE3=Jim Weatherly - Love Thing - Archie Jordon
TTITLE4=Trisha Yearwood - Sad Eyes
TTITLE5=Albert Hammod - If Never Rains In Southern California
TTITLE6=Faith Hill - Breathe
TTITLE7=Lobo - I'd Love You To Want Me
TTITLE8=Judds - One Man Woman
TTITLE9=John Denver - Take Me Home, Country Road
TTITLE10=Judy Collins - Blowing In The Wind
TTITLE11=Scott Mckenzie - San Francisco
TTITLE12=Bertie Higgins - Casablanca
TTITLE13=The Mamas and The Papas - California Dreaming
TTITLE14=Kenny Rogers - Love Me Tender
TTITLE15=Lobo - The End Of The World
TTITLE16=Simon and Garfunkel - The Sound Of Silence
TTITLE17=Wendy Williams - El Condor Pasa
TTITLE18=C.C.R - Cotton Field
TTITLE19=Conway Twitty - Play Guitar, Play
TTITLE20=Sacha Distel - Raindrops Keep Falling On My Head
TTITLE21=The Cascades - Rhythm Of The Rain
TTITLE22=Hank Williams - Jambalaya
TTITLE23=Dickey Lee - 9,999,999 Tears
TTITLE24=Kenny Rogers - Islands In Dream
EXTD=
EXTT0=
EXTT1=
EXTT2=
EXTT3=
EXTT4=
EXTT5=
EXTT6=
EXTT7=
EXTT8=
EXTT9=
EXTT10=
EXTT11=
EXTT12=
EXTT13=
EXTT14=
EXTT15=
EXTT16=
EXTT17=
EXTT18=
EXTT19=
EXTT20=
EXTT21=
EXTT22=
EXTT23=
EXTT24=
PLAYORDER=
